<svg width="84" height="84" viewBox="0 0 84 84" fill="none" xmlns="http://www.w3.org/2000/svg">
<g clip-path="url(#clip0_2_8341)">
<path fill-rule="evenodd" clip-rule="evenodd" d="M41.922 9.00026C39.4138 8.95496 36.9213 9.40473 34.5871 10.3238C32.2529 11.2429 30.1229 12.6133 28.3189 14.3565C26.5149 16.0997 25.0724 18.1816 24.0739 20.483C23.0755 22.7843 22.5406 25.26 22.5 27.7683V54.0003C22.5 55.5916 21.8679 57.1177 20.7426 58.2429C19.6174 59.3681 18.0913 60.0003 16.5 60.0003H9C6.61305 60.0003 4.32387 59.052 2.63604 57.3642C0.948211 55.6764 0 53.3872 0 51.0003L0 39.0003C0 36.6133 0.948211 34.3241 2.63604 32.6363C4.32387 30.9485 6.61305 30.0003 9 30.0003H13.5V27.6603C13.5547 23.9726 14.3354 20.3319 15.7974 16.946C17.2593 13.5601 19.374 10.4953 22.0205 7.92678C24.6671 5.35823 27.7937 3.33619 31.2218 1.97615C34.6499 0.6161 38.3124 -0.0553112 42 0.000258195C45.6876 -0.0553112 49.3501 0.6161 52.7782 1.97615C56.2063 3.33619 59.3329 5.35823 61.9795 7.92678C64.626 10.4953 66.7407 13.5601 68.2026 16.946C69.6646 20.3319 70.4453 23.9726 70.5 27.6603V30.0003H75C77.3869 30.0003 79.6761 30.9485 81.364 32.6363C83.0518 34.3241 84 36.6133 84 39.0003V51.0003C84 53.3872 83.0518 55.6764 81.364 57.3642C79.6761 59.052 77.3869 60.0003 75 60.0003H70.5V63.0003C70.5008 67.0548 69.0087 70.9677 66.3084 73.9922C63.6081 77.0168 59.8887 78.9412 55.86 79.3982C55.0776 80.7951 53.9368 81.958 52.5551 82.7669C51.1735 83.5759 49.601 84.0016 48 84.0003H39C36.6131 84.0003 34.3239 83.052 32.636 81.3642C30.9482 79.6764 30 77.3872 30 75.0003C30 72.6133 30.9482 70.3241 32.636 68.6363C34.3239 66.9485 36.6131 66.0003 39 66.0003H48C51.252 66.0003 54.102 67.7223 55.68 70.3083C57.3338 69.9282 58.8097 68.9985 59.8668 67.6711C60.9239 66.3437 61.4997 64.6971 61.5 63.0003V27.7623C61.4588 25.2411 60.9184 22.753 59.9098 20.442C58.9012 18.1309 57.4445 16.0427 55.624 14.2981C53.8035 12.5534 51.6552 11.1869 49.3033 10.2776C46.9515 9.36825 44.4427 8.93411 41.922 9.00026Z" fill="#3B3B3B"/>
</g>
<defs>
<clipPath id="clip0_2_8341">
<rect width="84" height="84" fill="white"/>
</clipPath>
</defs>
</svg>
