<svg width="96" height="96" viewBox="0 0 96 96" fill="none" xmlns="http://www.w3.org/2000/svg">
<path d="M62.108 63.908H75.068C80.18 63.824 88 66.516 88 76.228C88 86.308 78.352 88 75.064 88H31.784C21.752 88 8 85.964 8 68.68V32.008H88V50.076M70.008 55.904L63.2 61.584C62.8679 61.8745 62.5994 62.2306 62.4115 62.6298C62.2235 63.0291 62.1202 63.4629 62.108 63.904C62.0967 64.3747 62.1895 64.8421 62.3796 65.2729C62.5697 65.7036 62.8526 66.0871 63.208 66.396L70.008 71.928M8.024 31.964L11.708 22.764C14.7 15.608 16.196 12.032 19.228 10.02C22.26 8.008 26.148 8 33.92 8H62C69.776 8 73.664 8 76.696 10.016C79.728 12.028 81.22 15.604 84.216 22.756L88 31.98M47.852 32.004V8.004M39.852 48.004H55.852" stroke="black" stroke-width="6" stroke-linecap="round" stroke-linejoin="round"/>
</svg>
